<svg xmlns="http://www.w3.org/2000/svg" viewBox="0 0 422 422"><defs><style>.cls-1{fill:#fff;}.cls-2{font-size:63px;font-family:Staatliches-Regular, Staatliches;}.cls-3{letter-spacing:-0.01em;}.cls-4{opacity:0.51;}</style></defs><g id="Layer_2" data-name="Layer 2"><g id="Layer_1-2" data-name="Layer 1"><rect class="cls-1" x="5.5" y="5.5" width="411" height="411"/><path d="M411,11V411H11V11H411M422,0H0V422H422V0Z"/><path d="M115.56,111.69c20.34,0,36.82-16,36.82-35.66S135.9,40.37,115.56,40.37,78.74,56.33,78.74,76,95.22,111.69,115.56,111.69Zm25.78,8.91h-4.81a51.53,51.53,0,0,1-41.94,0h-4.8c-21.35,0-38.67,16.77-38.67,37.44v11.59A13.6,13.6,0,0,0,64.93,183H166.19A13.6,13.6,0,0,0,180,169.63V158C180,137.37,162.68,120.6,141.34,120.6Z"/><text class="cls-2" transform="translate(202.23 87.97)">R<tspan class="cls-3" x="30.37" y="0">e</tspan><tspan x="56.45" y="0">sume</tspan></text><rect class="cls-4" x="206" y="121" width="163" height="9"/><rect class="cls-4" x="206" y="161" width="163" height="9"/><rect class="cls-4" x="49" y="213" width="323" height="9"/><rect class="cls-4" x="48" y="251" width="323" height="9"/><rect class="cls-4" x="47" y="290" width="323" height="9"/><rect class="cls-4" x="47" y="328" width="323" height="9"/><rect class="cls-4" x="47" y="366" width="323" height="9"/></g></g></svg>